<?xml version="1.0" encoding="utf-8"?>
<!-- Generator: Adobe Illustrator 16.0.0, SVG Export Plug-In . SVG Version: 6.00 Build 0)  -->
<!DOCTYPE svg PUBLIC "-//W3C//DTD SVG 1.1//EN" "http://www.w3.org/Graphics/SVG/1.1/DTD/svg11.dtd" [
	<!ENTITY ns_extend "http://ns.adobe.com/Extensibility/1.0/">
	<!ENTITY ns_ai "http://ns.adobe.com/AdobeIllustrator/10.0/">
	<!ENTITY ns_graphs "http://ns.adobe.com/Graphs/1.0/">
	<!ENTITY ns_vars "http://ns.adobe.com/Variables/1.0/">
	<!ENTITY ns_imrep "http://ns.adobe.com/ImageReplacement/1.0/">
	<!ENTITY ns_sfw "http://ns.adobe.com/SaveForWeb/1.0/">
	<!ENTITY ns_custom "http://ns.adobe.com/GenericCustomNamespace/1.0/">
	<!ENTITY ns_adobe_xpath "http://ns.adobe.com/XPath/1.0/">
]>
<svg version="1.1" id="Capa_1" xmlns:x="&ns_extend;" xmlns:i="&ns_ai;" xmlns:graph="&ns_graphs;"
	 xmlns="http://www.w3.org/2000/svg" xmlns:xlink="http://www.w3.org/1999/xlink" x="0px" y="0px" width="512px" height="512px"
	 viewBox="0 0 512 512" enable-background="new 0 0 512 512" xml:space="preserve">
<metadata>
	<sfw  xmlns="&ns_sfw;">
		<slices></slices>
		<sliceSourceBounds  height="473.686" width="490.7" x="10.529" y="15.571" bottomLeftOrigin="true"></sliceSourceBounds>
	</sfw>
</metadata>
<g id="Capa_2">
	<g>
		<path stroke="#FFFFFF" stroke-width="2" stroke-miterlimit="10" d="M173.045,45.028c-11.234-12.025-30.093-12.665-42.12-1.427
			L114.23,59.198l0.003,0.005l-72.365,82.009c-2.606,2.431-2.744,6.516-0.31,9.119c2.433,2.603,6.514,2.74,9.116,0.309
			l74.425-69.544l10.57,11.313l-74.42,69.542c-2.604,2.434-2.742,6.517-0.311,9.121c2.433,2.604,6.517,2.744,9.12,0.309
			l74.421-69.544l10.572,11.314L80.63,182.692c-2.604,2.435-2.743,6.519-0.309,9.123c2.431,2.602,6.52,2.741,9.118,0.31
			l74.422-69.548l10.57,11.315l-74.421,69.542c-2.606,2.437-2.744,6.517-0.309,9.121c2.431,2.604,6.518,2.742,9.115,0.308
			l74.426-69.543l10.572,11.311l-74.422,69.545c-2.605,2.434-2.746,6.518-0.312,9.123c2.431,2.599,6.517,2.737,9.119,0.306
			l74.42-69.547l10.57,11.314l-74.42,69.544c-2.604,2.433-2.743,6.518-0.308,9.124c2.43,2.603,6.515,2.739,9.116,0.305
			l74.425-69.542l10.57,11.311l-74.422,69.544c-2.604,2.434-2.741,6.52-0.312,9.121c2.431,2.604,6.519,2.742,9.121,0.307
			l74.419-69.542l10.573,11.313l-74.423,69.542c-2.601,2.434-2.738,6.518-0.305,9.121c2.431,2.604,6.51,2.742,9.118,0.311
			l74.423-69.544l10.57,11.314l-74.422,69.541c-2.607,2.436-2.746,6.519-0.313,9.119c2.433,2.604,6.515,2.744,9.12,0.311
			l74.424-69.545l10.568,11.314l-74.423,69.543c-2.604,2.435-2.74,6.515-0.306,9.119c2.433,2.604,6.515,2.741,9.116,0.312
			l74.423-69.547l10.57,11.313l-74.421,69.545c-2.606,2.435-2.744,6.515-0.308,9.119c2.431,2.603,6.513,2.739,9.118,0.308
			l74.421-69.545l10.571,11.313l-74.423,69.545c-2.604,2.431-2.744,6.519-0.31,9.121c2.434,2.604,6.519,2.742,9.122,0.309
			l74.418-69.546l10.571,11.315l-74.422,69.543c-2.6,2.432-2.738,6.516-0.31,9.117c2.436,2.605,6.515,2.742,9.122,0.31l74.42-69.545
			l10.568,11.312l-74.424,69.545c-2.601,2.432-2.737,6.519-0.308,9.119c2.434,2.606,6.518,2.746,9.122,0.313l74.42-69.549
			l10.57,11.315l-74.422,69.545c-2.603,2.432-2.739,6.513-0.308,9.117s6.512,2.742,9.12,0.31l74.42-69.545l10.57,11.311
			l-74.422,69.548c-2.604,2.43-2.746,6.517-0.309,9.122c2.434,2.603,6.516,2.741,9.119,0.306l74.421-69.543l10.569,11.314
			l-74.419,69.543c-2.604,2.432-2.742,6.515-0.313,9.119c2.434,2.604,6.519,2.74,9.121,0.31l86.719-66.65l0.003,0.002l16.69-15.599
			c12.028-11.235,12.666-30.098,1.427-42.123L173.045,45.028z"/>
	</g>
</g>
<g id="Capa_3">
	<g>
		<path stroke="#FFFFFF" stroke-width="2" stroke-linecap="round" stroke-linejoin="round" stroke-miterlimit="10" d="
			M27.016,290.27c3.006,8.963,10.271,15.973,20.456,19.748c10.6,3.926,23.003,3.887,34.922-0.115
			c6.084-2.045,11.645-4.979,16.536-8.732c14.163-10.863,20.356-26.703,15.778-40.342c-6.364-18.945-31.205-27.75-55.383-19.633
			c-6.081,2.042-11.643,4.979-16.534,8.73C28.624,260.793,22.434,276.629,27.016,290.27z M16.498,293.801
			c-6.116-18.203,1.552-38.878,19.538-52.678c5.863-4.5,12.514-8.014,19.757-10.445c25.865-8.684,52.588-0.975,64.771,17.198
			c2.961,3.477,8.716,8.164,17.205,6.078c70.782-17.374,129.104-45.315,212.614-81.204c79.904-34.341,146.989-59.279,146.989-59.279
			s2.216-0.75,3.142,1.242c0.987,2.12-1.755,3.905-1.755,3.905L266.397,257.49c-2.021,1.236-4.067,2.382-8.137,0.171
			c-7.473-4.065-24.895-11.843-46.337-7.903c-24.426,4.487-49.639,10.121-74.16,17.053c-6.67,1.881-9.741,6.613-11.155,10.729
			c-2.169,11.991-9.438,23.614-20.932,32.429c-5.859,4.502-12.506,8.02-19.754,10.448c-14.31,4.806-29.339,4.806-42.309-0.002
			C30.223,315.455,20.593,306.002,16.498,293.801z"/>
		<path fill="none" stroke="#FFFFFF" stroke-width="2" stroke-linecap="round" stroke-linejoin="round" stroke-miterlimit="10" d="
			M225.537,460.738c4.362-4.361,7.998-9.493,10.819-15.254c11.204-22.908,5.72-48.689-12.229-57.471
			c-12.92-6.322-29.436-2.25-42.061,10.371c-4.356,4.36-7.998,9.493-10.819,15.254c-5.521,11.293-7.184,23.584-4.671,34.608
			c2.41,10.587,8.415,18.707,16.903,22.862C196.404,477.434,212.914,473.359,225.537,460.738z M155.762,450.714
			c-3.074-13.49-1.112-28.389,5.523-41.952c3.357-6.861,7.71-12.994,12.934-18.22c10.24-10.24,22.718-15.929,34.887-16.511
			c4.271-0.867,9.363-3.29,12.101-9.656c10.076-23.409,18.956-47.671,26.596-71.3c6.708-20.746,1.27-39.032-1.784-46.97
			c-1.663-4.32-0.262-6.206,1.231-8.046L415.286,25.826c0,0,2.124-2.485,4.099-1.229c1.854,1.179,0.814,3.279,0.814,3.279
			s-33.482,63.248-77.963,137.985c-46.492,78.103-81.816,132.28-108.285,200.188c-3.179,8.143,0.717,14.457,3.777,17.846
			c16.43,14.453,20.58,41.955,8.592,66.466c-3.358,6.865-7.709,12.993-12.937,18.225c-16.029,16.027-37.528,20.93-54.779,12.492
			C167.045,475.418,158.928,464.635,155.762,450.714z"/>
		<path stroke="#FFFFFF" stroke-width="2" stroke-linecap="round" stroke-linejoin="round" stroke-miterlimit="10" d="
			M225.537,460.738c4.362-4.361,7.998-9.493,10.819-15.254c11.204-22.908,5.72-48.689-12.229-57.471
			c-12.92-6.322-29.436-2.25-42.061,10.371c-4.356,4.36-7.998,9.493-10.819,15.254c-5.521,11.293-7.184,23.584-4.671,34.608
			c2.41,10.587,8.415,18.707,16.903,22.862C196.404,477.434,212.914,473.359,225.537,460.738z M155.762,450.714
			c-3.074-13.49-1.112-28.389,5.523-41.952c3.357-6.861,7.71-12.994,12.934-18.22c10.24-10.24,22.718-15.929,34.887-16.511
			c4.271-0.867,9.363-3.29,12.101-9.656c10.076-23.409,18.956-47.671,26.596-71.3c6.708-20.746,1.27-39.032-1.784-46.97
			c-1.663-4.32-0.262-6.206,1.231-8.046L415.286,25.826c0,0,2.124-2.485,4.099-1.229c1.854,1.179,0.814,3.279,0.814,3.279
			s-33.482,63.248-77.963,137.985c-46.492,78.103-81.816,132.28-108.285,200.188c-3.179,8.143,0.717,14.457,3.777,17.846
			c16.43,14.453,20.58,41.955,8.592,66.466c-3.358,6.865-7.709,12.993-12.937,18.225c-16.029,16.027-37.528,20.93-54.779,12.492
			C167.045,475.418,158.928,464.635,155.762,450.714z"/>
		<path fill="#FFFFFF" stroke="#000000" stroke-width="2" stroke-miterlimit="10" d="M275.259,230.08
			c-3.249-3.253-3.249-8.526,0-11.777c3.251-3.249,8.521-3.251,11.774,0c3.252,3.251,3.252,8.523,0,11.775
			C283.78,233.328,278.51,233.33,275.259,230.08z"/>
	</g>
</g>
<g id="Capa_1_1_" display="none">
	<g display="inline">
		
			<path fill="#FFFFFF" stroke="#010202" stroke-width="2" stroke-linecap="round" stroke-linejoin="round" stroke-miterlimit="10" d="
			M397.959,134.241c-27.322,14.47-45.809,38.237-63.325,61.695c-17.516,23.451-59.04,71.732-81.348,83.914
			c-10.205,5.572-14.585,6.504-15.546,11.644c-0.961,5.13-0.579,10.067-0.604,21.771c-0.013,6.487,0.919,9.676,0.919,9.676
			s41.705-31.816,59.465-56.556c17.758-24.741,32.951-37.233,41.032-32.187c8.083,5.046,11.617,15.379,20.484,24.254
			c8.867,8.878,47.282,46.23,93.147,10.855c45.873-35.375,45.067-79.52,26.175-107.324
			C458.54,132.82,425.285,119.773,397.959,134.241z M463.752,234.253c-18.271,30.399-52.986,42.636-78.755,26.55
			c-25.764-16.08-38.731-48.589-21.002-79.339c17.722-30.745,58.087-45.767,83.854-29.687
			C473.615,167.863,487.474,194.76,463.752,234.253z"/>
		
			<path fill="#FFFFFF" stroke="#FFFFFF" stroke-width="16" stroke-linecap="round" stroke-linejoin="round" stroke-miterlimit="10" d="
			M276.188,200.839c-8.797,6.985-47.865,41.926-72.632,72.281C178.794,303.477,19.03,488.929,19.03,488.929
			c88.556-26.944,208.909-158.304,208.909-158.304c6.584-10.506,3.251-30.445,1.938-40.212
			c-3.229-24.056,33.713-57.44,52.585-75.089L276.188,200.839z"/>
		
			<path fill="#FFFFFF" stroke="#010202" stroke-width="2" stroke-linecap="round" stroke-linejoin="round" stroke-miterlimit="10" d="
			M343.215,32.684c-30.658-14.45-82.182,4.631-100.027,55.248c-17.855,50.604,32.67,82.154,32.67,82.154
			c18.535,9.117,11.622,21.791,0.33,30.753c-8.797,6.985-47.865,41.926-72.632,72.281C178.794,303.477,19.03,488.929,19.03,488.929
			c88.556-26.944,208.909-158.304,208.909-158.304c6.584-10.506,3.251-30.445,1.938-40.212
			c-3.229-24.056,33.713-57.44,52.585-75.089c18.873-17.649,65.199-41.383,90.308-80.748
			C404.525,84.797,373.87,47.143,343.215,32.684z M359.063,128.239c-13.973,24.677-53.045,42.563-78.785,26.46
			c-25.751-16.116-35.654-42.18-17.89-72.904c17.76-30.725,52.103-46.249,79.597-33.669
			C369.454,60.688,383.913,84.339,359.063,128.239z"/>
		<path fill="#FFFFFF" stroke="#000000" stroke-width="2" stroke-miterlimit="10" d="M183.601,332.732
			c6.08,3.58,8.472,11.205,5.328,17.035c-3.131,5.828-10.608,7.655-16.688,4.074c-6.083-3.58-8.471-11.213-5.33-17.042
			C170.046,330.969,177.513,329.146,183.601,332.732z"/>
	</g>
</g>
</svg>
